HIERARCHY
ROOT joint_0
{
	OFFSET 0.000000 0.000000 0.000000
	CHANNELS 6 Xposition Yposition Zposition Zrotation Yrotation Xrotation 
	JOINT joint_1
	{
		OFFSET 6.004005 -1.946999 100.587036
		CHANNELS 3 Zrotation Yrotation Xrotation
		JOINT joint_2
		{
			OFFSET -4.601006 -0.824997 91.925903
			CHANNELS 3 Zrotation Yrotation Xrotation
			JOINT joint_3
			{
				OFFSET -5.420998 -1.130005 91.774048
				CHANNELS 3 Zrotation Yrotation Xrotation
				JOINT joint_4
				{
					OFFSET 4.308998 -3.777992 123.473999
					CHANNELS 3 Zrotation Yrotation Xrotation
					JOINT joint_5
					{
						OFFSET 25.565002 -6.305008 79.437988
						CHANNELS 3 Zrotation Yrotation Xrotation
						End Site
						{
							OFFSET 0.000000 0.000000 0.000000
						}
					}
				}
				JOINT joint_6
				{
					OFFSET -1.750000 -28.655998 68.557983
					CHANNELS 3 Zrotation Yrotation Xrotation
					JOINT joint_7
					{
						OFFSET -17.692001 -116.544006 -17.244019
						CHANNELS 3 Zrotation Yrotation Xrotation
						JOINT joint_8
						{
							OFFSET 27.063004 -23.640991 -266.895020
							CHANNELS 3 Zrotation Yrotation Xrotation
							JOINT joint_9
							{
								OFFSET 40.722000 -15.761017 -232.488953
								CHANNELS 3 Zrotation Yrotation Xrotation
								End Site
								{
									OFFSET 0.000000 0.000000 0.000000
								}
							}
						}
					}
				}
				JOINT joint_10
				{
					OFFSET 6.593002 24.457001 69.892944
					CHANNELS 3 Zrotation Yrotation Xrotation
					JOINT joint_11
					{
						OFFSET 24.311996 114.920002 -19.872925
						CHANNELS 3 Zrotation Yrotation Xrotation
						JOINT joint_12
						{
							OFFSET 21.081001 15.319000 -268.037964
							CHANNELS 3 Zrotation Yrotation Xrotation
							JOINT joint_13
							{
								OFFSET 27.794006 -8.947001 -234.744080
								CHANNELS 3 Zrotation Yrotation Xrotation
								End Site
								{
									OFFSET 0.000000 0.000000 0.000000
								}
							}
						}
					}
				}
			}
		}
	}
	JOINT joint_14
	{
		OFFSET -6.627998 -80.520004 -98.790039
		CHANNELS 3 Zrotation Yrotation Xrotation
		JOINT joint_15
		{
			OFFSET -43.638000 -13.751999 -502.538971
			CHANNELS 3 Zrotation Yrotation Xrotation
			JOINT joint_16
			{
				OFFSET -39.532999 -9.912994 -398.071007
				CHANNELS 3 Zrotation Yrotation Xrotation
				JOINT joint_17
				{
					OFFSET 174.940004 -34.660995 -75.688002
					CHANNELS 3 Zrotation Yrotation Xrotation
					End Site
					{
						OFFSET 0.000000 0.000000 0.000000
					}
				}
			}
		}
	}
	JOINT joint_18
	{
		OFFSET 12.591003 79.842003 -98.765015
		CHANNELS 3 Zrotation Yrotation Xrotation
		JOINT joint_19
		{
			OFFSET -39.080002 -1.297001 -503.101013
			CHANNELS 3 Zrotation Yrotation Xrotation
			JOINT joint_20
			{
				OFFSET -51.570000 -0.514000 -396.815987
				CHANNELS 3 Zrotation Yrotation Xrotation
				JOINT joint_21
				{
					OFFSET 178.987999 -11.521999 -73.244003
					CHANNELS 3 Zrotation Yrotation Xrotation
					End Site
					{
						OFFSET 0.000000 0.000000 0.000000
					}
				}
			}
		}
	}
}
MOTION
Frames: 17
Frame Time: 0.016667
1225.951050 -186.940994 1066.734985 1.473496 20.971015 -0.112693 0.031191 4.426074 -5.831556 0.270781 -7.051847 0.598961 0.379455 0.338377 1.444401 0.459288 8.730788 0.214563 0.000000 0.000000 0.000000 6.641670 0.925632 -5.951580 -27.818244 26.288086 -11.555453 10.847173 -68.199297 14.262345 0.000000 0.000000 0.000000 -3.164539 -0.520524 0.137339 20.750252 12.384893 8.308978 -3.059161 -68.788220 -30.979204 0.000000 0.000000 0.000000 -11.495528 -54.210461 4.925022 -20.814353 68.186409 -19.848164 -17.663738 0.224604 -11.123920 0.000000 0.000000 0.000000 -5.288988 -18.294675 1.601489 3.656840 35.385187 4.364893 6.080872 0.745413 2.437275 0.000000 0.000000 0.000000 
1269.107056 -192.473999 1074.104980 0.972328 20.661199 -0.664788 -0.452051 3.764948 -5.175872 -0.259631 -6.615809 0.354730 -0.098447 0.278234 1.825578 0.701469 8.612291 -0.321405 0.000000 0.000000 0.000000 6.169306 1.433622 -5.704452 -27.572632 27.293353 -10.406045 11.578526 -66.032002 14.849456 0.000000 0.000000 0.000000 -3.205794 -1.321867 0.020647 19.948458 12.146207 7.149081 -3.928584 -68.230575 -31.729245 0.000000 0.000000 0.000000 -10.425096 -55.546517 5.836040 -20.193829 61.007397 -17.781954 -13.749010 -0.798637 -9.894144 0.000000 0.000000 0.000000 -4.742522 -14.474583 2.889484 3.873816 31.545192 3.470201 5.905729 2.706156 2.457294 0.000000 0.000000 0.000000 
1313.116943 -198.009995 1079.811035 0.681921 20.234293 -1.104173 -0.953592 3.096521 -4.461625 -0.808407 -6.158142 0.100228 -0.598945 0.209886 2.103340 0.914607 8.478009 -0.797798 0.000000 0.000000 0.000000 5.522536 2.033201 -5.449128 -27.340407 28.230347 -9.653832 12.198723 -64.446465 15.351782 0.000000 0.000000 0.000000 -3.159937 -2.017879 0.064201 19.120770 11.828541 6.305750 -4.808420 -68.009688 -32.569506 0.000000 0.000000 0.000000 -9.394235 -55.911898 6.414019 -19.181186 52.998564 -15.384895 -10.231996 -0.450632 -8.428953 0.000000 0.000000 0.000000 -4.209593 -10.909102 4.101244 4.089765 28.365244 2.660276 5.766724 4.882971 2.502707 0.000000 0.000000 0.000000 
1357.560059 -202.867996 1082.577026 0.529922 19.693928 -1.424096 -1.473930 2.434749 -3.662756 -1.376857 -5.677263 -0.175448 -1.124404 0.119265 2.255783 1.095563 8.343527 -1.205313 0.000000 0.000000 0.000000 4.820238 2.715832 -5.295308 -27.055786 29.057273 -9.358527 12.745416 -63.532014 15.828373 0.000000 0.000000 0.000000 -3.048360 -2.565838 0.327320 18.365967 11.588493 5.661887 -5.657740 -68.267147 -33.503294 0.000000 0.000000 0.000000 -8.703351 -55.517978 6.702197 -18.323175 45.026564 -13.008281 -8.035226 0.120731 -7.407549 0.000000 0.000000 0.000000 -3.866506 -7.585863 4.969095 4.138395 25.972593 2.232464 5.664508 7.450547 2.582515 0.000000 0.000000 0.000000 
1402.786011 -207.367004 1083.255005 0.295784 19.191906 -1.659603 -1.944590 1.425298 -2.920048 -1.909907 -4.956065 -0.394837 -1.631824 -0.039351 2.301635 1.261007 8.152778 -1.586286 0.000000 0.000000 0.000000 4.084653 3.492993 -5.389177 -26.738743 29.851428 -9.294920 13.320327 -63.392655 16.404663 0.000000 0.000000 0.000000 -2.871843 -2.966737 0.871571 17.695989 11.469135 5.184726 -6.489163 -69.112813 -34.578031 0.000000 0.000000 0.000000 -8.217174 -54.544929 6.862911 -17.641841 36.582529 -10.446454 -6.523185 0.063692 -6.811321 0.000000 0.000000 0.000000 -3.633264 -4.599945 5.562342 4.097447 24.199991 2.093317 5.618102 10.275531 2.699102 0.000000 0.000000 0.000000 
1447.972046 -212.056000 1080.958984 0.682422 18.443190 -1.488749 -2.492975 0.658456 -2.494732 -2.496430 -4.331178 -0.510350 -2.212535 -0.225242 2.279690 1.357731 7.992270 -1.814517 0.000000 0.000000 0.000000 3.206467 4.340956 -5.514992 -26.486283 30.604583 -9.498126 13.761674 -63.811680 16.900460 0.000000 0.000000 0.000000 -2.630403 -3.312882 1.453415 17.040535 11.312549 4.866110 -7.319706 -70.270280 -35.731926 0.000000 0.000000 0.000000 -8.008310 -52.817002 6.631104 -16.983329 28.592459 -7.997593 -5.465632 1.432570 -6.041963 0.000000 0.000000 0.000000 -3.637330 -2.194423 5.910863 3.868344 24.348855 2.159802 5.424993 11.991282 2.695261 0.000000 0.000000 0.000000 
1493.032959 -217.440994 1074.230957 1.917768 17.366450 -0.714260 -3.091057 0.147298 -2.731715 -3.090528 -3.878287 -0.429331 -2.829849 -0.395551 2.167880 1.348161 7.909476 -1.802178 0.000000 0.000000 0.000000 2.022376 5.313596 -5.525993 -26.412972 31.384867 -9.972373 13.952147 -64.831523 17.202111 0.000000 0.000000 0.000000 -2.338506 -3.675710 2.069154 16.303908 11.094870 4.605435 -8.229627 -71.513366 -36.978776 0.000000 0.000000 0.000000 -8.114825 -50.549079 5.934278 -16.351940 22.247133 -6.257226 -4.879616 4.340268 -5.086879 0.000000 0.000000 0.000000 -3.939262 -0.679864 6.050187 3.428237 27.662671 2.361935 4.977009 11.548502 2.466734 0.000000 0.000000 0.000000 
1538.306030 -223.326004 1063.413940 3.277574 16.216191 0.209245 -3.526073 -0.741444 -3.241736 -3.520287 -3.173211 -0.279812 -3.301795 -0.678199 1.900084 1.241244 7.839035 -1.574818 0.000000 0.000000 0.000000 0.563822 6.431632 -5.578066 -26.484581 32.230861 -10.603195 14.005025 -66.551991 17.432550 0.000000 0.000000 0.000000 -2.013902 -4.034974 2.920012 15.529719 10.956904 4.292097 -9.221034 -72.950886 -38.345820 0.000000 0.000000 0.000000 -8.346485 -48.124018 5.190605 -15.923303 17.345196 -5.092834 -4.646447 6.919005 -4.359557 0.000000 0.000000 0.000000 -4.373439 0.005754 6.149370 2.931714 33.430266 2.735666 4.470364 10.079979 2.159466 0.000000 0.000000 0.000000 
1581.588013 -228.983002 1052.291992 3.923604 15.082367 0.493055 -3.599010 -1.665178 -3.232545 -3.622953 -2.327237 -0.221928 -3.440489 -1.054011 1.591581 1.030361 7.776513 -1.118213 0.000000 0.000000 0.000000 -0.662915 7.353529 -5.570584 -26.628771 32.874699 -11.267290 13.890404 -68.216232 17.478083 0.000000 0.000000 0.000000 -1.691469 -4.413040 3.533365 14.922840 10.707421 4.066121 -10.004140 -74.275504 -39.459076 0.000000 0.000000 0.000000 -8.379482 -46.695782 5.207980 -16.006161 16.101820 -5.222405 -4.966453 7.926682 -4.256336 0.000000 0.000000 0.000000 -4.529606 0.144904 6.702080 2.783500 40.036278 3.145723 4.320017 8.866166 2.027649 0.000000 0.000000 0.000000 
1620.994019 -233.904999 1043.140015 2.808459 14.147380 -0.577066 -2.994357 -2.635797 -1.918808 -3.169676 -1.508643 -0.426807 -2.989360 -1.188179 1.349301 0.709486 7.720442 -0.418397 0.000000 0.000000 0.000000 -1.067031 7.888602 -5.192515 -26.920940 33.190889 -11.965170 13.447350 -69.561342 17.154274 0.000000 0.000000 0.000000 -1.303440 -4.891713 3.440454 14.560892 10.047536 4.117613 -10.405890 -75.221360 -40.085314 0.000000 0.000000 0.000000 -7.837019 -47.753221 6.920797 -16.876304 21.643503 -7.730472 -6.014508 5.855715 -5.229507 0.000000 0.000000 0.000000 -3.956941 -0.206232 8.193558 3.453628 46.979944 3.372653 4.988004 7.995133 2.278327 0.000000 0.000000 0.000000 
1657.369995 -238.363007 1034.514038 1.486848 12.872967 -2.221763 -2.239724 -2.898227 0.217880 -2.640698 -1.088272 -0.797780 -2.437079 -0.996456 1.194423 0.297747 7.626881 0.475654 0.000000 0.000000 0.000000 -0.767065 8.138920 -4.402006 -27.402862 33.265516 -12.744733 12.662644 -70.869961 16.477219 0.000000 0.000000 0.000000 -0.760397 -5.471479 2.799169 14.320015 9.034287 4.369441 -10.567810 -75.778171 -40.374106 0.000000 0.000000 0.000000 -7.477648 -50.209189 9.502010 -18.858977 32.653195 -12.296152 -8.319654 2.944433 -6.947988 0.000000 0.000000 0.000000 -3.246670 -0.791967 10.348318 4.305576 54.706635 3.709534 6.107861 7.593638 2.751672 0.000000 0.000000 0.000000 
1692.542969 -242.520004 1027.423950 1.994741 10.959798 -3.113619 -2.087557 -1.370584 1.579359 -2.655400 -1.519556 -0.892114 -2.440160 -0.790599 1.218418 -0.093933 7.487153 1.315357 0.000000 0.000000 0.000000 -0.302660 7.735235 -3.679155 -27.744608 32.772655 -13.239930 11.876524 -71.075913 15.708843 0.000000 0.000000 0.000000 -0.164683 -5.766898 2.074709 14.239458 8.351239 4.553685 -10.530787 -75.685172 -40.316612 0.000000 0.000000 0.000000 -7.926398 -50.883506 11.006171 -21.177514 42.072195 -16.213063 -11.437220 2.724198 -8.296839 0.000000 0.000000 0.000000 -3.272766 -1.548504 12.109356 4.418781 62.238088 4.602929 7.126318 7.722090 3.205465 0.000000 0.000000 0.000000 
1727.837036 -246.507004 1022.500977 2.387541 9.561100 -3.920988 -1.929079 0.089334 2.566094 -2.631246 -1.914444 -0.985533 -2.401119 -0.780337 1.377421 -0.400488 7.332764 1.961827 0.000000 0.000000 0.000000 -0.200980 6.205850 -3.341884 -27.474950 31.207107 -13.332877 11.357158 -68.847187 15.040648 0.000000 0.000000 0.000000 0.335931 -5.481178 1.768807 14.469851 8.636930 4.361064 -10.257520 -74.981537 -39.887634 0.000000 0.000000 0.000000 -7.955366 -49.599588 11.998932 -22.560783 46.639666 -17.908213 -13.323104 1.940616 -9.272253 0.000000 0.000000 0.000000 -3.597049 -3.507358 13.527380 4.457026 69.559841 5.457139 8.268457 7.203736 3.685928 0.000000 0.000000 0.000000 
1762.578979 -250.272003 1019.312988 2.232191 8.758106 -5.003635 -1.593319 1.063309 3.794297 -2.422601 -2.109975 -1.234591 -2.160567 -0.797999 1.547398 -0.686277 7.210024 2.568711 0.000000 0.000000 0.000000 -0.531533 3.649317 -2.867330 -26.522634 28.546738 -13.507967 10.933071 -64.361938 14.294875 0.000000 0.000000 0.000000 0.720122 -4.764627 1.677970 15.019804 9.579110 4.011912 -9.710107 -73.894328 -39.091612 0.000000 0.000000 0.000000 -7.513977 -47.695661 13.226462 -23.554990 49.234514 -18.614556 -14.363333 -0.885076 -10.448730 0.000000 0.000000 0.000000 -4.069022 -6.783544 15.081046 4.638133 77.115018 6.057547 9.643205 6.052121 4.242884 0.000000 0.000000 0.000000 
1796.078003 -253.639008 1018.380005 2.313537 8.325109 -5.848389 -1.264204 1.711002 4.879752 -2.189062 -2.273114 -1.431638 -1.907372 -0.777586 1.564775 -0.982436 6.834145 3.128169 0.000000 0.000000 0.000000 -1.050612 1.071431 -2.110019 -25.650130 25.904048 -13.613146 10.462400 -60.120491 13.469013 0.000000 0.000000 0.000000 0.979406 -3.921697 1.777985 15.521849 10.601389 3.901438 -9.159824 -72.502992 -38.206468 0.000000 0.000000 0.000000 -7.078562 -45.636516 14.159279 -24.259389 50.696078 -18.924184 -15.023324 -3.601868 -11.442405 0.000000 0.000000 0.000000 -4.923164 -10.791048 16.392508 4.666280 83.675853 6.457969 10.781828 5.006251 4.700140 0.000000 0.000000 0.000000 
1827.540039 -256.408997 1020.174988 3.067124 8.333587 -6.034507 -1.061520 1.830934 5.402520 -2.009812 -2.337859 -1.444841 -1.736669 -0.781083 1.425640 -1.308248 6.018300 3.620466 0.000000 0.000000 0.000000 -1.104201 -0.802622 -1.596877 -25.919071 24.299509 -12.832259 9.700583 -58.290136 12.510333 0.000000 0.000000 0.000000 1.112610 -3.165333 2.150622 15.637731 11.371489 4.182856 -8.836385 -70.388841 -37.342642 0.000000 0.000000 0.000000 -6.927783 -43.894318 14.360159 -24.607680 51.543731 -19.173161 -15.434013 -5.063121 -11.996488 0.000000 0.000000 0.000000 -6.294330 -15.584036 16.997085 4.533368 88.730283 6.716137 11.320774 4.334626 4.910688 0.000000 0.000000 0.000000 
1857.201050 -258.647003 1024.489990 4.359421 8.830284 -5.755661 -0.986406 1.445087 5.584757 -1.897862 -2.282014 -1.437567 -1.636835 -0.845392 1.248464 -1.627934 4.911594 3.999463 0.000000 0.000000 0.000000 -0.673926 -2.394699 -1.491747 -27.075514 23.294938 -11.175904 8.652896 -57.979333 11.373775 0.000000 0.000000 0.000000 1.193708 -2.414913 2.688186 15.475083 12.006251 4.750027 -8.629200 -67.344490 -36.285522 0.000000 0.000000 0.000000 -6.939481 -42.275278 13.992765 -24.661679 51.497165 -19.174175 -15.458527 -6.047739 -12.275802 0.000000 0.000000 0.000000 -8.118204 -21.462290 17.073698 -175.618923 87.361686 -173.119213 11.427697 3.965069 4.945327 0.000000 0.000000 0.000000 
